# This file was created with Minddesk Qubicle 3.0
# Get Qubicle at www.getqubicle.com

mtllib arm-upper-r.mtl

vn 0.0 0.0 1.0
vn 0.0 0.0 -1.0
vn -1.0 0.0 0.0
vn 1.0 0.0 0.0
vn 0.0 1.0 0.0
vn 0.0 -1.0 0.0

v 26.00000 66.00000 0.00000
v 26.00000 60.00000 0.00000
v 15.00000 60.00000 0.00000
v 15.00000 66.00000 0.00000
v 31.00000 65.00000 1.00000
v 31.00000 60.00000 1.00000
v 26.00000 60.00000 1.00000
v 26.00000 65.00000 1.00000
v 31.00000 67.00000 0.00000
v 31.00000 66.00000 0.00000
v 28.00000 66.00000 0.00000
v 28.00000 67.00000 0.00000
v 29.00000 66.00000 1.00000
v 29.00000 65.00000 1.00000
v 26.00000 66.00000 1.00000
v 31.00000 65.00000 0.00000
v 29.00000 65.00000 0.00000
v 29.00000 66.00000 0.00000
v 31.00000 68.00000 0.00000
v 29.00000 67.00000 0.00000
v 29.00000 68.00000 0.00000
v 31.00000 69.00000 1.00000
v 31.00000 68.00000 1.00000
v 29.00000 68.00000 1.00000
v 29.00000 69.00000 1.00000
v 29.00000 67.00000 1.00000
v 28.00000 67.00000 1.00000
v 28.00000 68.00000 1.00000
v 29.00000 69.00000 2.00000
v 29.00000 68.00000 2.00000
v 28.00000 68.00000 2.00000
v 28.00000 69.00000 2.00000
v 15.00000 66.00000 5.00000
v 15.00000 60.00000 5.00000
v 26.00000 60.00000 5.00000
v 26.00000 66.00000 5.00000
v 26.00000 64.00000 4.00000
v 26.00000 60.00000 4.00000
v 31.00000 60.00000 4.00000
v 31.00000 64.00000 4.00000
v 26.00000 66.00000 4.00000
v 28.00000 64.00000 4.00000
v 28.00000 66.00000 4.00000
v 28.00000 67.00000 7.00000
v 28.00000 66.00000 7.00000
v 31.00000 66.00000 7.00000
v 31.00000 67.00000 7.00000
v 29.00000 65.00000 6.00000
v 29.00000 64.00000 6.00000
v 31.00000 64.00000 6.00000
v 31.00000 65.00000 6.00000
v 29.00000 69.00000 6.00000
v 29.00000 68.00000 6.00000
v 31.00000 68.00000 6.00000
v 31.00000 69.00000 6.00000
v 29.00000 66.00000 7.00000
v 29.00000 65.00000 7.00000
v 31.00000 65.00000 7.00000
v 29.00000 68.00000 7.00000
v 29.00000 67.00000 7.00000
v 31.00000 68.00000 7.00000
v 28.00000 65.00000 5.00000
v 28.00000 64.00000 5.00000
v 29.00000 64.00000 5.00000
v 29.00000 65.00000 5.00000
v 28.00000 69.00000 5.00000
v 28.00000 68.00000 5.00000
v 29.00000 68.00000 5.00000
v 29.00000 69.00000 5.00000
v 28.00000 66.00000 6.00000
v 28.00000 65.00000 6.00000
v 29.00000 66.00000 6.00000
v 28.00000 68.00000 6.00000
v 28.00000 67.00000 6.00000
v 29.00000 67.00000 6.00000
v 28.00000 65.00000 4.00000
v 31.00000 64.00000 1.00000
v 15.00000 66.00000 1.00000
v 15.00000 66.00000 4.00000
v 28.00000 66.00000 1.00000
v 31.00000 69.00000 5.00000
v 31.00000 69.00000 2.00000
v 15.00000 60.00000 4.00000
v 15.00000 60.00000 1.00000
v 31.00000 64.00000 5.00000

vt 0.01563 0.21875
vt 0.01563 0.03125
vt 0.18750 0.03125
vt 0.18750 0.21875
vt 0.21875 0.21875
vt 0.21875 0.03125
vt 0.39063 0.03125
vt 0.39063 0.21875
vt 0.42188 0.21875
vt 0.42188 0.03125
vt 0.50000 0.03125
vt 0.50000 0.21875
vt 0.53125 0.21875
vt 0.53125 0.03125
vt 0.54688 0.03125
vt 0.54688 0.21875
vt 0.57813 0.21875
vt 0.57813 0.03125
vt 0.59375 0.03125
vt 0.59375 0.21875
vt 0.62500 0.18750
vt 0.62500 0.03125
vt 0.70313 0.03125
vt 0.70313 0.18750
vt 0.73438 0.15625
vt 0.73438 0.03125
vt 0.81250 0.03125
vt 0.81250 0.15625
vt 0.84375 0.15625
vt 0.84375 0.03125
vt 0.89063 0.03125
vt 0.89063 0.15625
vt 0.01563 0.37500
vt 0.01563 0.28125
vt 0.26563 0.28125
vt 0.26563 0.37500
vt 0.29688 0.37500
vt 0.29688 0.28125
vt 0.50000 0.28125
vt 0.50000 0.37500
vt 0.53125 0.37500
vt 0.53125 0.28125
vt 0.64063 0.28125
vt 0.64063 0.37500
vt 0.92188 0.12500
vt 0.92188 0.03125
vt 0.96875 0.03125
vt 0.96875 0.12500
vt 0.67188 0.34375
vt 0.67188 0.28125
vt 0.70313 0.28125
vt 0.70313 0.34375
vt 0.73438 0.31250
vt 0.73438 0.28125
vt 0.90625 0.28125
vt 0.90625 0.31250
vt 0.01563 0.46875
vt 0.01563 0.43750
vt 0.18750 0.43750
vt 0.18750 0.46875
vt 0.21875 0.46875
vt 0.21875 0.43750
vt 0.39063 0.43750
vt 0.39063 0.46875
vt 0.42188 0.46875
vt 0.42188 0.43750
vt 0.59375 0.43750
vt 0.59375 0.46875
vt 0.62500 0.46875
vt 0.62500 0.43750
vt 0.73438 0.43750
vt 0.73438 0.46875
vt 0.76563 0.46875
vt 0.76563 0.43750
vt 0.84375 0.43750
vt 0.84375 0.46875
vt 0.87500 0.46875
vt 0.87500 0.43750
vt 0.95313 0.43750
vt 0.95313 0.46875
vt 0.01563 0.56250
vt 0.01563 0.53125
vt 0.09375 0.53125
vt 0.09375 0.56250
vt 0.93750 0.31250
vt 0.93750 0.28125
vt 0.98438 0.28125
vt 0.98438 0.31250
vt 0.12500 0.56250
vt 0.12500 0.53125
vt 0.17188 0.53125
vt 0.17188 0.56250
vt 0.20313 0.56250
vt 0.20313 0.53125
vt 0.25000 0.53125
vt 0.25000 0.56250
vt 0.28125 0.56250
vt 0.28125 0.53125
vt 0.32813 0.53125
vt 0.32813 0.56250
vt 0.35938 0.56250
vt 0.35938 0.53125
vt 0.40625 0.53125
vt 0.40625 0.56250
vt 0.43750 0.56250
vt 0.43750 0.53125
vt 0.46875 0.53125
vt 0.46875 0.56250
vt 0.50000 0.56250
vt 0.50000 0.53125
vt 0.53125 0.53125
vt 0.53125 0.56250
vt 0.56250 0.56250
vt 0.56250 0.53125
vt 0.59375 0.53125
vt 0.59375 0.56250
vt 0.62500 0.56250
vt 0.62500 0.53125
vt 0.65625 0.53125
vt 0.65625 0.56250
vt 0.68750 0.56250
vt 0.68750 0.53125
vt 0.71875 0.53125
vt 0.71875 0.56250
vt 0.75000 0.56250
vt 0.75000 0.53125
vt 0.78125 0.53125
vt 0.78125 0.56250
vt 0.81250 0.56250
vt 0.81250 0.53125
vt 0.84375 0.53125
vt 0.84375 0.56250
vt 0.87500 0.56250
vt 0.87500 0.53125
vt 0.90625 0.53125
vt 0.90625 0.56250
vt 0.93750 0.56250
vt 0.93750 0.53125
vt 0.96875 0.53125
vt 0.96875 0.56250
vt 0.01563 0.65625
vt 0.01563 0.62500
vt 0.04688 0.62500
vt 0.04688 0.65625
vt 0.07813 0.65625
vt 0.07813 0.62500
vt 0.10938 0.62500
vt 0.10938 0.65625
vt 0.14063 0.65625
vt 0.14063 0.62500
vt 0.17188 0.62500
vt 0.17188 0.65625
vt 0.20313 0.65625
vt 0.20313 0.62500
vt 0.23438 0.62500
vt 0.23438 0.65625
vt 0.26563 0.65625
vt 0.26563 0.62500
vt 0.29688 0.62500
vt 0.29688 0.65625
vt 0.32813 0.65625
vt 0.32813 0.62500
vt 0.35938 0.62500
vt 0.35938 0.65625
vt 0.39063 0.65625
vt 0.39063 0.62500
vt 0.40625 0.62500
vt 0.40625 0.65625
vt 0.43750 0.65625
vt 0.43750 0.62500
vt 0.45313 0.62500
vt 0.45313 0.65625
vt 0.48438 0.65625
vt 0.48438 0.62500
vt 0.50000 0.62500
vt 0.50000 0.65625
vt 0.53125 0.65625
vt 0.53125 0.62500
vt 0.54688 0.62500
vt 0.54688 0.65625
vt 0.57813 0.65625
vt 0.57813 0.62500
vt 0.59375 0.62500
vt 0.59375 0.65625
vt 0.62500 0.65625
vt 0.62500 0.62500
vt 0.64063 0.62500
vt 0.64063 0.65625
vt 0.67188 0.65625
vt 0.67188 0.62500
vt 0.68750 0.62500
vt 0.68750 0.65625
vt 0.71875 0.65625
vt 0.71875 0.62500
vt 0.73438 0.62500
vt 0.73438 0.65625
vt 0.76563 0.65625
vt 0.76563 0.62500
vt 0.78125 0.62500
vt 0.78125 0.65625
vt 0.81250 0.65625
vt 0.81250 0.62500
vt 0.82813 0.62500
vt 0.82813 0.65625
vt 0.85938 0.65625
vt 0.85938 0.62500
vt 0.87500 0.62500
vt 0.87500 0.65625
vt 0.90625 0.65625
vt 0.90625 0.62500
vt 0.92188 0.62500
vt 0.92188 0.65625
vt 0.95313 0.65625
vt 0.95313 0.62500
vt 0.96875 0.62500
vt 0.96875 0.65625
vt 0.01563 0.75000
vt 0.01563 0.71875
vt 0.03125 0.71875
vt 0.03125 0.75000
vt 0.06250 0.75000
vt 0.06250 0.71875
vt 0.07813 0.71875
vt 0.07813 0.75000
vt 0.10938 0.75000
vt 0.10938 0.71875
vt 0.12500 0.71875
vt 0.12500 0.75000
vt 0.15625 0.75000
vt 0.15625 0.71875
vt 0.17188 0.71875
vt 0.17188 0.75000
vt 0.20313 0.75000
vt 0.20313 0.71875
vt 0.21875 0.71875
vt 0.21875 0.75000
vt 0.25000 0.75000
vt 0.25000 0.71875
vt 0.26563 0.71875
vt 0.26563 0.75000
vt 0.29688 0.75000
vt 0.29688 0.71875
vt 0.31250 0.71875
vt 0.31250 0.75000
vt 0.34375 0.75000
vt 0.34375 0.71875
vt 0.35938 0.71875
vt 0.35938 0.75000
vt 0.65625 0.18750
vt 0.62500 0.15625
vt 0.23438 0.56250
vt 0.23438 0.53125
vt 0.95313 0.31250
vt 0.76563 0.15625
vt 0.70313 0.31250
vt 0.29688 0.56250
vt 0.29688 0.53125
vt 0.43750 0.21875
vt 0.48438 0.21875
vt 0.48438 0.03125
vt 0.43750 0.03125
vt 0.64063 0.46875
vt 0.71875 0.46875
vt 0.68750 0.43750
vt 0.71875 0.43750
vt 0.64063 0.43750
vt 0.78125 0.46875
vt 0.82813 0.46875
vt 0.76563 0.53125
vt 0.53125 0.18750
vt 0.59375 0.15625
vt 0.62500 0.37500
vt 0.54688 0.37500
vt 0.64063 0.34375
vt 0.64063 0.31250
vt 0.62500 0.28125
vt 0.54688 0.28125
vt 0.53125 0.31250
vt 0.53125 0.34375
vt 0.90625 0.43750
vt 0.89063 0.43750
vt 0.03125 0.56250
vt 0.07813 0.56250
vt 0.46875 0.28125
vt 0.46875 0.37500
vt 0.93750 0.03125
vt 0.93750 0.12500
vt 0.18750 0.28125
vt 0.18750 0.37500
vt 0.37500 0.56250

g _6
usemtl arm-upper-r_Material
f 2/6/2 4/8/2 1/5/2
f 2/6/2 3/7/2 4/8/2
f 14/249/2 5/21/2 77/250/2
f 77/250/2 8/24/2 14/249/2
f 8/24/2 77/250/2 6/22/2
f 6/22/2 7/23/2 8/24/2
f 20/251/2 9/93/2 10/94/2
f 10/94/2 12/96/2 20/251/2
f 12/96/2 10/94/2 18/252/2
f 18/252/2 11/95/2 12/96/2
f 80/253/2 13/85/2 14/86/2
f 14/86/2 15/88/2 80/253/2
f 15/88/2 14/86/2 8/87/2
f 16/158/2 18/160/2 10/157/2
f 16/158/2 17/159/2 18/160/2
f 9/162/2 21/164/2 19/161/2
f 9/162/2 20/163/2 21/164/2
f 23/138/2 25/140/2 22/137/2
f 23/138/2 24/139/2 25/140/2
f 26/170/2 28/172/2 24/169/2
f 26/170/2 27/171/2 28/172/2
f 30/174/2 32/176/2 29/173/2
f 30/174/2 31/175/2 32/176/2
f 34/2/1 36/4/1 33/1/1
f 34/2/1 35/3/1 36/4/1
f 42/254/1 37/25/1 38/26/1
f 38/26/1 40/28/1 42/254/1
f 40/28/1 38/26/1 39/27/1
f 43/52/1 41/49/1 37/50/1
f 37/50/1 76/255/1 43/52/1
f 76/255/1 37/50/1 42/51/1
f 60/256/1 44/97/1 45/98/1
f 45/98/1 47/100/1 60/256/1
f 47/100/1 45/98/1 56/257/1
f 56/257/1 46/99/1 47/100/1
f 49/110/1 51/112/1 48/109/1
f 49/110/1 50/111/1 51/112/1
f 53/106/1 55/108/1 52/105/1
f 53/106/1 54/107/1 55/108/1
f 57/114/1 46/116/1 56/113/1
f 57/114/1 58/115/1 46/116/1
f 60/118/1 61/120/1 59/117/1
f 60/118/1 47/119/1 61/120/1
f 63/166/1 65/168/1 62/165/1
f 63/166/1 64/167/1 65/168/1
f 67/222/1 69/224/1 66/221/1
f 67/222/1 68/223/1 69/224/1
f 71/226/1 72/228/1 70/225/1
f 71/226/1 48/227/1 72/228/1
f 74/214/1 53/216/1 73/213/1
f 74/214/1 75/215/1 53/216/1
f 78/258/3 4/9/3 3/10/3
f 3/10/3 79/259/3 78/258/3
f 79/259/3 3/10/3 84/261/3
f 84/261/3 33/12/3 79/259/3
f 33/12/3 84/261/3 83/260/3
f 83/260/3 34/11/3 33/12/3
f 27/262/3 12/69/3 11/70/3
f 11/70/3 74/263/3 27/262/3
f 74/263/3 11/70/3 80/266/3
f 80/266/3 44/72/3 74/263/3
f 44/72/3 80/266/3 43/264/3
f 43/264/3 45/71/3 44/72/3
f 45/71/3 43/264/3 70/265/3
f 31/267/3 28/73/3 27/74/3
f 27/74/3 67/268/3 31/267/3
f 67/268/3 27/74/3 74/75/3
f 74/75/3 73/76/3 67/268/3
f 31/90/3 66/92/3 32/89/3
f 31/90/3 67/91/3 66/92/3
f 70/128/3 43/125/3 76/126/3
f 76/126/3 71/127/3 70/128/3
f 71/127/3 76/126/3 62/269/3
f 17/218/3 13/220/3 18/217/3
f 17/218/3 14/219/3 13/220/3
f 20/230/3 24/232/3 21/229/3
f 20/230/3 26/231/3 24/232/3
f 24/242/3 29/244/3 25/241/3
f 24/242/3 30/243/3 29/244/3
f 42/246/3 62/248/3 76/245/3
f 42/246/3 63/247/3 62/248/3
f 64/234/3 48/236/3 65/233/3
f 64/234/3 49/235/3 48/236/3
f 68/238/3 52/240/3 69/237/3
f 68/238/3 53/239/3 52/240/3
f 48/186/3 56/188/3 72/185/3
f 48/186/3 57/187/3 56/188/3
f 75/190/3 59/192/3 53/189/3
f 75/190/3 60/191/3 59/192/3
f 1/16/4 15/13/4 8/270/4
f 8/270/4 2/15/4 1/16/4
f 2/15/4 8/270/4 7/14/4
f 41/20/4 36/17/4 35/18/4
f 35/18/4 37/271/4 41/20/4
f 37/271/4 35/18/4 38/19/4
f 54/273/4 61/41/4 47/279/4
f 47/279/4 23/272/4 54/273/4
f 23/272/4 47/279/4 46/278/4
f 46/278/4 19/44/4 23/272/4
f 19/44/4 46/278/4 58/42/4
f 58/42/4 9/274/4 19/44/4
f 9/274/4 58/42/4 51/277/4
f 51/277/4 10/275/4 9/274/4
f 10/275/4 51/277/4 5/276/4
f 5/276/4 16/43/4 10/275/4
f 39/30/4 77/32/4 40/29/4
f 39/30/4 6/31/4 77/32/4
f 5/80/4 51/77/4 50/78/4
f 50/78/4 77/79/4 5/80/4
f 77/79/4 50/78/4 85/281/4
f 85/281/4 40/280/4 77/79/4
f 81/282/4 55/81/4 54/82/4
f 54/82/4 82/283/4 81/282/4
f 82/283/4 54/82/4 23/83/4
f 23/83/4 22/84/4 82/283/4
f 15/285/5 78/37/5 79/38/5
f 79/38/5 41/284/5 15/285/5
f 80/40/5 15/285/5 41/284/5
f 41/284/5 43/39/5 80/40/5
f 29/287/5 32/45/5 66/46/5
f 66/46/5 69/286/5 29/287/5
f 82/48/5 29/287/5 69/286/5
f 69/286/5 81/47/5 82/48/5
f 4/53/5 78/54/5 1/56/5
f 78/54/5 15/55/5 1/56/5
f 79/57/5 33/58/5 41/60/5
f 33/58/5 36/59/5 41/60/5
f 21/145/5 24/146/5 19/148/5
f 24/146/5 23/147/5 19/148/5
f 25/149/5 29/150/5 22/152/5
f 29/150/5 82/151/5 22/152/5
f 69/141/5 52/142/5 81/144/5
f 52/142/5 55/143/5 81/144/5
f 53/133/5 59/134/5 54/136/5
f 59/134/5 61/135/5 54/136/5
f 12/177/5 27/178/5 20/180/5
f 27/178/5 26/179/5 20/180/5
f 28/181/5 31/182/5 24/184/5
f 31/182/5 30/183/5 24/184/5
f 67/193/5 73/194/5 68/196/5
f 73/194/5 53/195/5 68/196/5
f 74/205/5 44/206/5 75/208/5
f 44/206/5 60/207/5 75/208/5
f 38/289/6 83/33/6 84/34/6
f 84/34/6 7/288/6 38/289/6
f 39/36/6 38/289/6 7/288/6
f 7/288/6 6/35/6 39/36/6
f 84/61/6 3/62/6 7/64/6
f 3/62/6 2/63/6 7/64/6
f 34/65/6 83/66/6 35/68/6
f 83/66/6 38/67/6 35/68/6
f 64/290/6 63/101/6 42/102/6
f 42/102/6 40/103/6 64/290/6
f 85/104/6 64/290/6 40/103/6
f 14/153/6 17/154/6 5/156/6
f 17/154/6 16/155/6 5/156/6
f 49/129/6 64/130/6 50/132/6
f 64/130/6 85/131/6 50/132/6
f 57/121/6 48/122/6 58/124/6
f 48/122/6 51/123/6 58/124/6
f 80/209/6 11/210/6 13/212/6
f 11/210/6 18/211/6 13/212/6
f 71/197/6 62/198/6 48/200/6
f 62/198/6 65/199/6 48/200/6
f 45/201/6 70/202/6 56/204/6
f 70/202/6 72/203/6 56/204/6
