# This file was created with Minddesk Qubicle 3.0
# Get Qubicle at www.getqubicle.com

mtllib arm-lower-l.mtl

vn 0.0 0.0 1.0
vn 0.0 0.0 -1.0
vn -1.0 0.0 0.0
vn 1.0 0.0 0.0
vn 0.0 1.0 0.0
vn 0.0 -1.0 0.0

v 76.00000 66.00000 0.00000
v 76.00000 60.00000 0.00000
v 67.00000 60.00000 0.00000
v 67.00000 66.00000 0.00000
v 81.00000 66.00000 1.00000
v 81.00000 60.00000 1.00000
v 76.00000 60.00000 1.00000
v 76.00000 66.00000 1.00000
v 82.00000 66.00000 2.00000
v 82.00000 60.00000 2.00000
v 81.00000 60.00000 2.00000
v 81.00000 66.00000 2.00000
v 67.00000 66.00000 5.00000
v 67.00000 60.00000 5.00000
v 76.00000 60.00000 5.00000
v 76.00000 66.00000 5.00000
v 76.00000 66.00000 4.00000
v 76.00000 60.00000 4.00000
v 81.00000 60.00000 4.00000
v 81.00000 66.00000 4.00000
v 81.00000 66.00000 3.00000
v 81.00000 60.00000 3.00000
v 82.00000 60.00000 3.00000
v 82.00000 66.00000 3.00000
v 67.00000 66.00000 1.00000
v 67.00000 66.00000 2.00000
v 67.00000 66.00000 3.00000
v 67.00000 66.00000 4.00000
v 67.00000 60.00000 1.00000
v 67.00000 60.00000 2.00000
v 67.00000 60.00000 3.00000
v 67.00000 60.00000 4.00000

vt 0.03125 0.21875
vt 0.03125 0.03125
vt 0.31250 0.03125
vt 0.31250 0.21875
vt 0.37500 0.21875
vt 0.37500 0.03125
vt 0.65625 0.03125
vt 0.65625 0.21875
vt 0.71875 0.21875
vt 0.71875 0.03125
vt 0.87500 0.03125
vt 0.87500 0.21875
vt 0.03125 0.46875
vt 0.03125 0.28125
vt 0.18750 0.28125
vt 0.18750 0.46875
vt 0.25000 0.46875
vt 0.25000 0.28125
vt 0.40625 0.28125
vt 0.40625 0.46875
vt 0.93750 0.21875
vt 0.93750 0.03125
vt 0.96875 0.03125
vt 0.96875 0.21875
vt 0.46875 0.46875
vt 0.46875 0.28125
vt 0.50000 0.28125
vt 0.50000 0.46875
vt 0.56250 0.46875
vt 0.56250 0.28125
vt 0.59375 0.28125
vt 0.59375 0.46875
vt 0.65625 0.46875
vt 0.65625 0.28125
vt 0.68750 0.28125
vt 0.68750 0.46875
vt 0.75000 0.46875
vt 0.75000 0.28125
vt 0.78125 0.28125
vt 0.78125 0.46875
vt 0.84375 0.46875
vt 0.84375 0.28125
vt 0.87500 0.28125
vt 0.87500 0.46875
vt 0.93750 0.46875
vt 0.93750 0.28125
vt 0.96875 0.28125
vt 0.96875 0.46875
vt 0.03125 0.56250
vt 0.03125 0.53125
vt 0.50000 0.53125
vt 0.50000 0.56250
vt 0.03125 0.65625
vt 0.03125 0.62500
vt 0.50000 0.62500
vt 0.50000 0.65625
vt 0.03125 0.75000
vt 0.03125 0.71875
vt 0.46875 0.71875
vt 0.46875 0.75000
vt 0.53125 0.75000
vt 0.53125 0.71875
vt 0.96875 0.71875
vt 0.96875 0.75000
vt 0.03125 0.84375
vt 0.03125 0.81250
vt 0.46875 0.81250
vt 0.46875 0.84375
vt 0.53125 0.84375
vt 0.53125 0.81250
vt 0.96875 0.81250
vt 0.96875 0.84375
vt 0.56250 0.56250
vt 0.56250 0.53125
vt 0.84375 0.53125
vt 0.84375 0.56250
vt 0.56250 0.65625
vt 0.56250 0.62500
vt 0.84375 0.62500
vt 0.84375 0.65625
vt 0.03125 0.93750
vt 0.03125 0.90625
vt 0.31250 0.90625
vt 0.31250 0.93750
vt 0.37500 0.93750
vt 0.37500 0.90625
vt 0.65625 0.90625
vt 0.65625 0.93750
vt 0.06250 0.46875
vt 0.09375 0.46875
vt 0.12500 0.46875
vt 0.15625 0.46875
vt 0.06250 0.28125
vt 0.09375 0.28125
vt 0.12500 0.28125
vt 0.15625 0.28125
vt 0.31250 0.84375
vt 0.46875 0.53125
vt 0.46875 0.56250
vt 0.81250 0.81250
vt 0.81250 0.71875
vt 0.46875 0.62500
vt 0.46875 0.65625
vt 0.31250 0.75000

g 
usemtl arm-lower-l_Material
f 2/6/2 4/8/2 1/5/2
f 2/6/2 3/7/2 4/8/2
f 6/18/2 8/20/2 5/17/2
f 6/18/2 7/19/2 8/20/2
f 10/34/2 12/36/2 9/33/2
f 10/34/2 11/35/2 12/36/2
f 14/2/1 16/4/1 13/1/1
f 14/2/1 15/3/1 16/4/1
f 18/10/1 20/12/1 17/9/1
f 18/10/1 19/11/1 20/12/1
f 22/38/1 24/40/1 21/37/1
f 22/38/1 23/39/1 24/40/1
f 25/89/3 4/13/3 3/14/3
f 3/14/3 26/90/3 25/89/3
f 26/90/3 3/14/3 29/93/3
f 29/93/3 27/91/3 26/90/3
f 27/91/3 29/93/3 30/94/3
f 30/94/3 28/92/3 27/91/3
f 28/92/3 30/94/3 31/95/3
f 31/95/3 13/16/3 28/92/3
f 13/16/3 31/95/3 32/96/3
f 32/96/3 14/15/3 13/16/3
f 7/42/4 1/44/4 8/41/4
f 7/42/4 2/43/4 1/44/4
f 11/22/4 5/24/4 12/21/4
f 11/22/4 6/23/4 5/24/4
f 23/30/4 9/32/4 24/29/4
f 23/30/4 10/31/4 9/32/4
f 19/26/4 21/28/4 20/25/4
f 19/26/4 22/27/4 21/28/4
f 15/46/4 17/48/4 16/45/4
f 15/46/4 18/47/4 17/48/4
f 4/77/5 25/78/5 1/80/5
f 25/78/5 8/79/5 1/80/5
f 8/97/5 25/65/5 26/66/5
f 26/66/5 12/67/5 8/97/5
f 5/68/5 8/97/5 12/67/5
f 12/99/5 26/49/5 27/50/5
f 27/50/5 21/98/5 12/99/5
f 9/52/5 12/99/5 21/98/5
f 21/98/5 24/51/5 9/52/5
f 21/72/5 27/69/5 28/70/5
f 28/70/5 17/100/5 21/72/5
f 20/71/5 21/72/5 17/100/5
f 28/81/5 13/82/5 17/84/5
f 13/82/5 16/83/5 17/84/5
f 29/85/6 3/86/6 7/88/6
f 3/86/6 2/87/6 7/88/6
f 11/64/6 30/61/6 29/62/6
f 29/62/6 7/101/6 11/64/6
f 6/63/6 11/64/6 7/101/6
f 22/103/6 31/53/6 30/54/6
f 30/54/6 11/102/6 22/103/6
f 23/56/6 22/103/6 11/102/6
f 11/102/6 10/55/6 23/56/6
f 18/104/6 32/57/6 31/58/6
f 31/58/6 22/59/6 18/104/6
f 19/60/6 18/104/6 22/59/6
f 14/73/6 32/74/6 15/76/6
f 32/74/6 18/75/6 15/76/6
