# This file was created with Minddesk Qubicle 3.0
# Get Qubicle at www.getqubicle.com

mtllib body-lower.mtl

vn 0.0 0.0 1.0
vn 0.0 0.0 -1.0
vn -1.0 0.0 0.0
vn 1.0 0.0 0.0
vn 0.0 1.0 0.0
vn 0.0 -1.0 0.0

v 51.00000 49.00000 4.00000
v 51.00000 44.00000 4.00000
v 31.00000 44.00000 4.00000
v 31.00000 49.00000 4.00000
v 51.00000 44.00000 3.00000
v 51.00000 41.00000 3.00000
v 31.00000 41.00000 3.00000
v 31.00000 44.00000 3.00000
v 47.00000 41.00000 1.00000
v 47.00000 37.00000 1.00000
v 35.00000 37.00000 1.00000
v 35.00000 41.00000 1.00000
v 51.00000 51.00000 2.00000
v 51.00000 49.00000 2.00000
v 31.00000 49.00000 2.00000
v 31.00000 51.00000 2.00000
v 31.00000 51.00000 13.00000
v 31.00000 41.00000 13.00000
v 51.00000 41.00000 13.00000
v 51.00000 51.00000 13.00000
v 35.00000 41.00000 13.00000
v 35.00000 37.00000 13.00000
v 47.00000 37.00000 13.00000
v 47.00000 41.00000 13.00000
v 31.00000 44.00000 13.00000
v 31.00000 49.00000 13.00000
v 51.00000 49.00000 13.00000
v 51.00000 44.00000 13.00000
v 35.00000 41.00000 3.00000
v 47.00000 41.00000 3.00000

vt 0.01563 0.20313
vt 0.01563 0.01563
vt 0.20313 0.01563
vt 0.20313 0.20313
vt 0.23438 0.18750
vt 0.23438 0.01563
vt 0.54688 0.01563
vt 0.54688 0.18750
vt 0.57813 0.17188
vt 0.57813 0.01563
vt 0.89063 0.01563
vt 0.89063 0.17188
vt 0.92188 0.17188
vt 0.92188 0.01563
vt 0.98438 0.01563
vt 0.98438 0.17188
vt 0.01563 0.39063
vt 0.01563 0.23438
vt 0.07813 0.23438
vt 0.07813 0.39063
vt 0.10938 0.31250
vt 0.10938 0.23438
vt 0.42188 0.23438
vt 0.42188 0.31250
vt 0.45313 0.31250
vt 0.45313 0.23438
vt 0.59375 0.23438
vt 0.59375 0.31250
vt 0.62500 0.31250
vt 0.62500 0.23438
vt 0.76563 0.23438
vt 0.76563 0.31250
vt 0.79688 0.29688
vt 0.79688 0.23438
vt 0.98438 0.23438
vt 0.98438 0.29688
vt 0.01563 0.48438
vt 0.01563 0.42188
vt 0.20313 0.42188
vt 0.20313 0.48438
vt 0.23438 0.48438
vt 0.23438 0.42188
vt 0.42188 0.42188
vt 0.42188 0.48438
vt 0.45313 0.48438
vt 0.45313 0.42188
vt 0.64063 0.42188
vt 0.64063 0.48438
vt 0.10938 0.39063
vt 0.10938 0.34375
vt 0.42188 0.34375
vt 0.42188 0.39063
vt 0.45313 0.39063
vt 0.45313 0.34375
vt 0.60938 0.34375
vt 0.60938 0.39063
vt 0.64063 0.39063
vt 0.64063 0.34375
vt 0.79688 0.34375
vt 0.79688 0.39063
vt 0.67188 0.45313
vt 0.67188 0.42188
vt 0.98438 0.42188
vt 0.98438 0.45313
vt 0.01563 0.54688
vt 0.01563 0.51563
vt 0.32813 0.51563
vt 0.32813 0.54688
vt 0.35938 0.54688
vt 0.35938 0.51563
vt 0.54688 0.51563
vt 0.54688 0.54688
vt 0.57813 0.54688
vt 0.57813 0.51563
vt 0.75000 0.51563
vt 0.75000 0.54688
vt 0.78125 0.54688
vt 0.78125 0.51563
vt 0.95313 0.51563
vt 0.95313 0.54688
vt 0.01563 0.59375
vt 0.01563 0.57813
vt 0.32813 0.57813
vt 0.32813 0.59375
vt 0.35938 0.34375
vt 0.17188 0.34375
vt 0.89063 0.14063
vt 0.89063 0.06250
vt 0.64063 0.01563
vt 0.82813 0.01563
vt 0.57813 0.06250
vt 0.57813 0.14063
vt 0.04688 0.48438
vt 0.65625 0.39063
vt 0.81250 0.51563
vt 0.60938 0.48438
vt 0.59375 0.39063
vt 0.71875 0.51563

g _4
usemtl body-lower_Material
f 2/22/2 4/24/2 1/21/2
f 2/22/2 3/23/2 4/24/2
f 8/52/2 5/49/2 6/50/2
f 6/50/2 7/51/2 8/52/2
f 7/51/2 6/50/2 30/86/2
f 30/86/2 29/85/2 7/51/2
f 10/34/2 12/36/2 9/33/2
f 10/34/2 11/35/2 12/36/2
f 14/62/2 16/64/2 13/61/2
f 14/62/2 15/63/2 16/64/2
f 20/12/1 17/9/1 26/92/1
f 26/92/1 27/87/1 20/12/1
f 27/87/1 26/92/1 25/91/1
f 25/91/1 28/88/1 27/87/1
f 28/88/1 25/91/1 18/10/1
f 18/10/1 19/11/1 28/88/1
f 19/11/1 18/10/1 21/89/1
f 21/89/1 24/90/1 19/11/1
f 22/42/1 24/44/1 21/41/1
f 22/42/1 23/43/1 24/44/1
f 3/30/3 26/32/3 4/29/3
f 3/30/3 25/31/3 26/32/3
f 29/93/3 12/37/3 11/38/3
f 11/38/3 21/40/3 29/93/3
f 21/40/3 11/38/3 22/39/3
f 3/94/3 8/57/3 7/58/3
f 7/58/3 25/60/3 3/94/3
f 25/60/3 7/58/3 18/59/3
f 17/80/3 16/77/3 15/78/3
f 15/78/3 26/79/3 17/80/3
f 26/79/3 15/78/3 4/95/3
f 28/26/4 1/28/4 27/25/4
f 28/26/4 2/27/4 1/28/4
f 30/96/4 24/45/4 23/46/4
f 23/46/4 9/48/4 30/96/4
f 9/48/4 23/46/4 10/47/4
f 2/97/4 28/53/4 19/54/4
f 19/54/4 5/56/4 2/97/4
f 5/56/4 19/54/4 6/55/4
f 13/76/4 20/73/4 27/74/4
f 27/74/4 14/75/4 13/76/4
f 14/75/4 27/74/4 1/98/4
f 16/5/5 17/6/5 13/8/5
f 17/6/5 20/7/5 13/8/5
f 12/69/5 29/70/5 9/72/5
f 29/70/5 30/71/5 9/72/5
f 8/81/5 3/82/5 5/84/5
f 3/82/5 2/83/5 5/84/5
f 22/1/6 11/2/6 23/4/6
f 11/2/6 10/3/6 23/4/6
f 18/17/6 7/18/6 21/20/6
f 7/18/6 29/19/6 21/20/6
f 24/13/6 30/14/6 19/16/6
f 30/14/6 6/15/6 19/16/6
f 4/65/6 15/66/6 1/68/6
f 15/66/6 14/67/6 1/68/6
